/* XPM */
static char*center[]={
"16 16 10 1",
"a c #808080",
"f c #ff00ff",
"e c #00ff00",
"c c #00ffff",
"# c #000000",
"d c #ffff00",
"h c #0000ff",
". c None",
"b c #ffffff",
"g c #ff0000",
"................",
".####......####.",
".#............#.",
".#.aaaaaaaaaa.#.",
".#.abcdefgh#a.#.",
"...abcdefgh#a...",
"...abcdefgh#a...",
"...abcdefgh#a...",
"...abcdefgh#a...",
"...abcdefgh#a...",
"...abcdefgh#a...",
".#.abcdefgh#a.#.",
".#.aaaaaaaaaa.#.",
".#............#.",
".####......####.",
"................"};
