/* XPM */
static char*fileexit[]={
"16 16 4 1",
"a c #808080",
"b c #a0a0a0",
"# c #000000",
". c None",
".......##.......",
".......##.......",
".......##.......",
"...a#..##..#a...",
"..a##..##..##a..",
".b##...##...##b.",
".a#a...##...a#a.",
".##....##....##.",
".##....##....##.",
".##....##....##.",
".##..........##.",
".a#a........a#a.",
".b##........##b.",
"..a##a....a##a..",
"...a########a...",
"....ba####ab...."};
