/* XPM */
static char*fileclose[]={
"16 16 71 2",
".d c #5d5d5d",
".D c #808080",
".9 c #272727",
".e c #656565",
".M c #4a4a4a",
".U c #5a5a5a",
".I c #3f3f3f",
".Q c #7d7d7d",
"#d c #242424",
".v c #626262",
".P c #a0a0a0",
".W c #474747",
".C c #858585",
".Z c #2c2c2c",
".l c #6a6a6a",
".x c #4f4f4f",
".u c #727272",
".r c #7a7a7a",
"#e c #5f5f5f",
".5 c #292929",
".1 c #4c4c4c",
".E c #6f6f6f",
".# c #adadad",
".n c #545454",
".8 c #393939",
".m c #5c5c5c",
".T c #414141",
".H c #494949",
".q c #878787",
".h c #8f8f8f",
".O c #363636",
".w c #595959",
".6 c #3e3e3e",
".f c #7c7c7c",
".z c #616161",
".y c #464646",
".B c #848484",
"#c c #2b2b2b",
".R c #696969",
".a c #8c8c8c",
".Y c #333333",
".j c #717171",
".7 c #3b3b3b",
"#b c #9c9c9c",
".2 c #434343",
".F c #666666",
".o c #4b4b4b",
".4 c #303030",
".k c #6e6e6e",
".G c #535353",
".p c #767676",
".N c #404040",
".A c #7e7e7e",
".c c #636363",
".K c #868686",
"Qt c None",
".V c #505050",
".S c #353535",
".b c #737373",
".X c #3d3d3d",
".s c #7b7b7b",
"#a c #222222",
"## c #2a2a2a",
".L c #686868",
".J c #ffffff",
".g c #a6a6a6",
"#. c #323232",
".i c #707070",
".0 c #555555",
".3 c #3a3a3a",
".t c #787878",
"QtQtQtQt.#.a.b.c.d.e.f.gQtQtQtQt",
"QtQtQt.h.i.j.k.l.c.m.n.o.pQtQtQt",
"QtQt.q.p.r.s.t.u.l.v.w.x.y.zQtQt",
"Qt.h.p.A.B.C.D.t.E.F.m.G.H.I.kQt",
".#.i.r.B.J.J.K.f.b.L.J.J.M.N.O.P",
".a.j.s.C.J.J.J.Q.b.J.J.J.M.N.O.R",
".b.k.t.D.K.J.J.J.J.J.J.G.H.I.S.T",
".c.l.u.t.f.Q.J.J.J.J.U.V.W.X.Y.Z",
".d.c.l.E.b.b.J.J.J.J.0.1.2.3.4.5",
".e.m.v.F.L.J.J.J.J.J.J.W.6.S.Z.7",
".f.n.w.m.J.J.J.U.0.J.J.J.8.4.9.z",
".g.o.x.G.J.J.G.V.1.W.J.J#.###a#b",
"Qt.p.y.H.M.M.H.W.2.6.8#.#c#d#eQt",
"QtQt.z.I.N.N.I.X.3.S.4###d.oQtQt",
"QtQtQt.k.O.O.S.Y.4.Z.9#a#eQtQtQt",
"QtQtQtQt.P.R.T.Z.5.7.z#bQtQtQtQt"};
