/* XPM */
static char*filenew[]={
"16 16 5 1",
"b c #808080",
"# c #303030",
"c c #ffffc0",
". c None",
"a c #ffffff",
"..########......",
"..#aaaaaa##.....",
"..#aaaaaa#a#....",
"..#aaaaaa#aa#...",
"..#aaaaaa#####..",
"..#aaaaaaaaaa#b.",
"..#aaaaaaaaaa#b.",
"..#acacacacac#b.",
"..#cacacacaca#b.",
"..#acacacacac#b.",
"..#cacacacaca#b.",
"..#cccccccccc#b.",
"..#cccccccccc#b.",
"..#cccccccccc#b.",
"..############b.",
"...bbbbbbbbbbbb."};
