/* XPM */
static char*filesave[]={
"16 16 10 1",
"g c #a0a0a0",
"e c #c3c3c3",
"c c #000080",
"a c #c0c000",
"b c #000000",
". c #0000c0",
"# c #ffffc0",
"f c #0000ff",
"h c None",
"d c #dcdcdc",
"...##########...",
".#.#aaaaa#aa#.b.",
"...##########...",
"...#aaa#aaa##...",
"...##########...",
"...##########...",
"....########....",
"................",
"................",
"...ccccccccccc..",
"...cdddddeee.f..",
"...cdd..eeeg.f..",
"...cdd..eegg.f..",
"...cdd..eggg.f..",
"...cde..gggg.f..",
"h..ceeegggggff.."};
