/* XPM */
static char*fileopen[]={
"16 16 8 1",
"c c #ffa858",
"e c #c05800",
"# c #000000",
"d c #ff8000",
"f c #800000",
"b c #ffdca8",
"a c #ffffc0",
". c None",
"..........###...",
".........#...#.#",
"..............##",
".............###",
".#####..........",
"#aaaaa#######...",
"#bbbbbbbbbbbb#..",
"#bbbccccccccc#..",
"#bbc###########.",
"#bc#bcccdddeeef#",
"#bc#bcccdddeeef#",
"#c#bcccdddeeef#.",
"#c#bcccdddeeef#.",
"##bcccdddeeef#..",
"##bcccdddeeef#..",
"#############..."};
