/* XPM */
static char*fileprint[]={
"16 16 10 1",
"d c #808080",
"# c #a0a0a0",
"g c #c0c000",
"h c #808000",
"c c #000000",
"e c #ffffc0",
". c None",
"b c #585858",
"a c #ffffff",
"f c #ff0000",
"...##########...",
"...#aaaaaaaab...",
"...#ac#caccab...",
"...#aaaaaaaab...",
"...#accac#cab...",
"...#aaaaaaaab...",
"...#acaccacab...",
"...#aaaaaaaab...",
".dddddddddddddd.",
"deeeeeeeeeeeeeeb",
"deffgggggggggggb",
"degggggggggggggb",
"degggggggggggggb",
".bbbbbbbbbbbbbb.",
".dhhhhhhhhhhhhb.",
"..bbbbbbbbbbbb.."};
