/* XPM */
static char*forwardon[]={
"16 16 3 1",
"a c #00ff00",
"# c #004000",
". c None",
"................",
"................",
"................",
"####..###.......",
"#aa#..#aa##.....",
"#aa#..#aaaa##...",
"#aa#..#aaaaaa##.",
"#aa#..#aaaaaaaa#",
"#aa#..#aaaaaaaa#",
"#aa#..#aaaaaa##.",
"#aa#..#aaaa##...",
"#aa#..#aa##.....",
"####..###.......",
"................",
"................",
"................"};
