/* XPM */
static char*forward[]={
"16 16 2 1",
"# c #000000",
". c None",
"................",
"................",
"................",
".##..........##.",
".####........##.",
".######......##.",
".########....##.",
".##########..##.",
".##########..##.",
".########....##.",
".######......##.",
".####........##.",
".##..........##.",
"................",
"................",
"................"};
