/* XPM */
static char*lock[]={
"16 16 9 1",
"g c #008000",
"e c #00ff00",
"d c #004000",
"# c #400000",
"c c #800000",
". c None",
"b c #c00000",
"f c #00c000",
"a c #ff0000",
"................",
"................",
"################",
"#aaaaaaaaaaaaaa#",
"#abbbbbbbbbbbbc#",
"#abbbbbbbbbbbbc#",
"#accccccccccccc#",
"################",
"dddddddddddddddd",
"deeeeeeeeeeeeeed",
"deffffffffffffgd",
"deffffffffffffgd",
"degggggggggggggd",
"dddddddddddddddd",
"................",
"................"};
