/* XPM */
static char*loop[]={
"16 16 4 1",
"# c #a0a0a0",
"b c #000000",
". c None",
"a c #585858",
"................",
"................",
"..#abbbbbbbba#..",
"..abbbbbbbbbba..",
"..bb........bb..",
"..bb........bb..",
"..........bbbbbb",
"..bb.......bbbb.",
".bbbb.......bb..",
"bbbbbb..........",
"..bb........bb..",
"..bb........bb..",
"..abbbbbbbbbba..",
"..#abbbbbbbba#..",
"................",
"................"};
