/* XPM */
static char*pauseon[]={
"16 16 3 1",
"a c #00ff00",
"# c #004000",
". c None",
"................",
"................",
"................",
"...####..####...",
"...#aa#..#aa#...",
"...#aa#..#aa#...",
"...#aa#..#aa#...",
"...#aa#..#aa#...",
"...#aa#..#aa#...",
"...#aa#..#aa#...",
"...#aa#..#aa#...",
"...#aa#..#aa#...",
"...####..####...",
"................",
"................",
"................"};
