/* XPM */
static char*player16[]={
"16 16 8 1",
"d c #00ff00",
"e c #0000c0",
"# c #400000",
"f c #0000ff",
". c None",
"b c #c00000",
"c c #00c000",
"a c #ff0000",
"................",
"...#.#aaaa#.#...",
"...#.#aaaa#.#...",
"...###baab###...",
"...#.######.#...",
"...#.######.#...",
"...###cddc###...",
"...#.#dddd#.#...",
"...#.#dddd#.#...",
"...###cddc###...",
"...#.######.#...",
"...#.######.#...",
"...###effe###...",
"...#.#ffff#.#...",
"...#.#ffff#.#...",
"................"};
