/* XPM */
static char*player32[]={
"32 32 8 1",
"d c #00ff00",
"e c #0000c0",
"# c #400000",
"f c #0000ff",
". c None",
"b c #c00000",
"c c #00c000",
"a c #ff0000",
"................................",
"................................",
".....#...##aaaaaaaaaa##...#.....",
".....#...##aaaaaaaaaa##...#.....",
".....#...##aaaaaaaaaa##...#.....",
".....######aaaaaaaaaa######.....",
".....######aaaaaaaaaa######.....",
".....#...##baaaaaaaab##...#.....",
".....#...##############...#.....",
".....#...##############...#.....",
".....######################.....",
".....######cddddddddc######.....",
".....#...##dddddddddd##...#.....",
".....#...##dddddddddd##...#.....",
".....#...##dddddddddd##...#.....",
".....######dddddddddd######.....",
".....######dddddddddd######.....",
".....#...##dddddddddd##...#.....",
".....#...##dddddddddd##...#.....",
".....#...##dddddddddd##...#.....",
".....######cddddddddc######.....",
".....######################.....",
".....#...##############...#.....",
".....#...##############...#.....",
".....#...##effffffffe##...#.....",
".....######ffffffffff######.....",
".....######ffffffffff######.....",
".....#...##ffffffffff##...#.....",
".....#...##ffffffffff##...#.....",
".....#...##ffffffffff##...#.....",
"................................",
"................................"};
