/* XPM */
static char*playoff[]={
"16 16 3 1",
"a c #008000",
"# c #004000",
". c None",
"................",
"................",
"................",
"...###..........",
"...#aa##........",
"...#aaaa##......",
"...#aaaaaa##....",
"...#aaaaaaaa#...",
"...#aaaaaaaa#...",
"...#aaaaaa##....",
"...#aaaa##......",
"...#aa##........",
"...###..........",
"................",
"................",
"................"};
