/* XPM */
static char*tilehor[]={
"16 16 3 1",
"# c #0000ff",
". c #585858",
"a c #ffffff",
"................",
".##############.",
".##############.",
".aaaaaaaaaaaaaa.",
".aaaaaaaaaaaaaa.",
".aaaaaaaaaaaaaa.",
".aaaaaaaaaaaaaa.",
"................",
"................",
".##############.",
".##############.",
".aaaaaaaaaaaaaa.",
".aaaaaaaaaaaaaa.",
".aaaaaaaaaaaaaa.",
".aaaaaaaaaaaaaa.",
"................"};
