/* XPM */
static char*tilever[]={
"16 16 3 1",
"# c #0000ff",
". c #585858",
"a c #ffffff",
"................",
".######..######.",
".######..######.",
".aaaaaa..aaaaaa.",
".aaaaaa..aaaaaa.",
".aaaaaa..aaaaaa.",
".aaaaaa..aaaaaa.",
".aaaaaa..aaaaaa.",
".aaaaaa..aaaaaa.",
".aaaaaa..aaaaaa.",
".aaaaaa..aaaaaa.",
".aaaaaa..aaaaaa.",
".aaaaaa..aaaaaa.",
".aaaaaa..aaaaaa.",
".aaaaaa..aaaaaa.",
"................"};
