/* XPM */
static char*unlock[]={
"16 16 9 1",
"g c #008000",
"e c #00ff00",
"d c #004000",
". c #400000",
"b c #800000",
"c c None",
"a c #c00000",
"f c #00c000",
"# c #ff0000",
"................",
".##############.",
".#aaaaaaaaaaaab.",
".#aaaaaaaaaaaab.",
".#bbbbbbbbbbbbb.",
"................",
"cccccccccccccccc",
"cccccccccccccccc",
"cccccccccccccccc",
"cccccccccccccccc",
"dddddddddddddddd",
"deeeeeeeeeeeeeed",
"deffffffffffffgd",
"deffffffffffffgd",
"degggggggggggggd",
"dddddddddddddddd"};
